<svg xmlns="http://www.w3.org/2000/svg" width="499.195" height="748.242" viewBox="0 0 499.195 748.242">
  <g id="holding_coffee" data-name="holding coffee" transform="translate(-1128.771 -1075.999)">
    <g id="body_mono_Coffee" data-name="body/mono/Coffee" transform="translate(1128.771 1367.652)">
      <rect id="Rectangle_17" data-name="Rectangle 17" width="150.039" height="132.159" transform="translate(72.299 203.544)" fill="#fef9ef"/>
      <path id="Path_7" data-name="Path 7" d="M725.914,1477.672s15.466-11.659,24.032-11.659,16.894,8.8,33.074,9.28,13.563-14.276,33.788-14.99,21.653,24.746,54.489,19.511S861.3,1530.5,861.3,1530.5s-27.363,12.848-29.267,13.8-75.9,3.331-75.9,3.331-37.357-24.508-37.357-26.174S725.914,1477.672,725.914,1477.672Z" transform="translate(-655.934 -1206.268)" fill="#865439"/>
      <path id="_-Background" data-name="ðŸŽ¨-Background" d="M286.681-3.79c-15.721-11.971-55.19-17.355-71.969-5.828-16.573,11.575-18.379,30.294-26.1,47.513-7.286-3.436-19.319,1.485-21.431,8.246-2.62,3.189-2.738,12.148-4.545,16.435C84.017,75.09,72.081,136.382,62.618,205.965,50.1,276.575,21.682,347.03,34.019,419.688a41.671,41.671,0,0,0-4.047,7.272c-2.808,4.778.809,11.541,6.473,11.279,7.331-.644,14.589-1.523,21.955-1.8,20.418-.709,40.855-.625,61.28-.365l2.785.036c102.939,1.281,205.873,3.807,308.817,4.476,3.735.006,5.563-3.344,5.064-6.648-1-6.652-1.936-13.307-2.909-19.963,24.349,6.431,50.234,8.049,74.514.676,1.7-1.73-3.958-.792-4.855-1.055,22.345-15.269,15.672-47.436,13.693-70.6-12.308-79.387-16.647-167.223-64.2-234.965C432.015,80.386,401.854,58.5,367.2,53.573l-.962-.132c-10.134-1.351-21.428-1.786-30.288-7.3-9.965-7.955-14.212-22.655-24.7-22.792-3.462-.045-8.172,4.334-13.239,7.307-.378-6.541-3.9-12.061-4.682-17.133l-.063-.434C292.454,7.178,293.566,1.858,286.681-3.79ZM117.726,208.063c22.094-15.348,79.166-7.636,80.472-6.777,2.877,1.892,4.115,2.06,5.671,4.517q2.3.306,4.6.633c3.077,1,.8,4.789-2.757,3.439,2.137,9.218-4.153,15.774-6.657,24.887-.813,2.959-.029,8.281,0,11.3-.243,3.855-4.5,8.409-3.794,12.276,2.525,13.749,16.229,27.162,10.452,40.5-3.828,7.531-15.34,11.371-22.994,13.932-15.857,6.086-43.487-.229-52.7-13.932-4.914-7.309-10.608-25.744-13.538-31.463l-.65-9.072C114.233,235.754,112.808,211.479,117.726,208.063Z" transform="translate(-23.26 16)" fill="#fffcf9" fill-rule="evenodd"/>
      <path id="_-Ink" data-name="ðŸ–-Ink" d="M315.839,30.372a1.8,1.8,0,0,0-2.813,2.171,71.294,71.294,0,0,0,7.335,11.611c1.772,2.2,3.671,4.277,5.595,6.332-4.938,4.272-9.172,9.575-13.171,14.545-5.113,6.357-9.948,12.983-15.688,18.8a50.025,50.025,0,0,1-19.489,12.42l-1.529.531c-7.6,2.669-15.729,6.274-20.015,13.472a1.684,1.684,0,0,0,2.287,2.288c7.447-4.611,16.2-5.538,24.3-8.585A60.512,60.512,0,0,0,303.343,90.7c6.021-5.771,11.076-12.337,16.35-18.765a142.641,142.641,0,0,1,17-17.161c9.518,6.4,20.383,9.19,31.431,11.926l1.206.3c11.061,2.739,22.063,5.919,32.44,10.688,9.149,4.2,18.148,9.224,25.6,16.066,7.911,7.26,14.069,16.533,19.7,25.6,12.606,20.288,21.469,42.515,29.271,65.012a671.464,671.464,0,0,1,20.382,71.421c2.787,12.285,5.05,24.658,6.911,37.117q1.343,9,2.39,18.041c.746,6.436.917,13.057,2.891,19.244a4.771,4.771,0,0,0,4.845,3.659l.406,5.082c.539,6.775,1.041,13.552,1.211,20.369.281,11.335.154,22.638-.661,33.948l-.116,1.542c-.641,8.255-2.072,17.531-8.28,23.575-6.429,6.26-16.315,8.229-24.979,8.342-20.18.263-39.606-9.272-57.464-17.637-18.392-8.615-36.281-18.178-53.741-28.548Q356.8,372.6,343.767,364.169q-6.392-4.136-12.692-8.409c-2.405-1.632-4.685-3.421-7.134-4.868a3.386,3.386,0,0,0,.73-4.407c7.079-6.145,10.025-17.11,10.37-25.982.278-7.162-.776-14.3-1.607-21.4-.42-3.577-.938-7.148-1.476-10.71-.213-1.407-.375-2.912-.624-4.4a584.715,584.715,0,0,0,58.935,28.169c10.339,4.26,20.81,8.09,31.426,11.6l2.151.708a233.522,233.522,0,0,0,30.757,8.285c.556.1,1.008-.72.414-.982-10.134-4.471-20.619-8.243-30.9-12.361l-1.69-.688h0a3.4,3.4,0,0,0,.606-.088c6.032-1.456,12.018-3.7,17.934-5.589,5.491-1.753,11.66-2.854,16.793-5.5.395-.2.174-.753-.211-.779-5.769-.4-12.031,1.281-17.687,2.27l-2.125.372c-3.56.628-7.2,1.3-10.74,2.183a4.556,4.556,0,0,0-1.734-3.077c-10.379-7.686-9.325-23.211-10.435-34.659l-.823-8.5c-1.448-14.874-2.979-29.746-5.306-44.51-.124-.788-1.344-.562-1.349.182-.12,18.3,1.261,36.516,1.954,54.788l.107,3c.383,11.274.683,22.981,7.784,31.657a2.443,2.443,0,0,0-3.14.376,5.888,5.888,0,0,0-1.541,3.793q-9.625-4.035-19.162-8.267c-20.439-9.055-40.45-19.188-59.931-30.153a3.742,3.742,0,0,0-5.126,1.3l-.15-.022c-.025,0-.05-.006-.076-.006l-.148-.006H327.9c-2.742-1.507-6.478-.434-8.832,1.764-.069.066-.129.138-.19.208a31.515,31.515,0,0,1-8.286-5.431,84.43,84.43,0,0,1-13.357-16.278c-7.025-10.693-12.993-22.584-22.483-31.386-7.711-7.151-17.27-11.6-27.3-14.4a.994.994,0,0,0-.273-.813c-.515-.528-.883-.711-1.548-.39a.239.239,0,0,0-.106.1l-.979-1.672c-.534-.908-1.083-1.821-1.272-2.062-1.139-1.434-2.311-2.856-3.5-4.249a30.688,30.688,0,0,0-6.977-6.321c-5.827-3.58-11.953-1.554-17.945.4-3.62,1.183-7.228,2.4-10.841,3.6l-.373.122c-2.694.865-5.847,1.623-7.052,4.478a5.842,5.842,0,0,0-.329,3.44c-25.592-6.508-54.017-3.518-78.991,4.122a3.018,3.018,0,0,0-2.118,2.117,161.01,161.01,0,0,0-2.841,44.647,112.892,112.892,0,0,0,9.351,37.3l.306.666c5.055,10.93,13.067,24.4,25.3,27.83,7.388,2.069,15.56.849,23.1.47,7.323-.369,14.809-.422,22.063-1.574,6.46-1.025,12.121-3.921,16.114-9.174,3.444-4.532,5.258-10.009,6.744-15.457.68.217,1.356.446,2.021.707a22.249,22.249,0,0,1,7.335,4.947c4.54,4.4,8.062,9.737,12.813,13.933a54.063,54.063,0,0,0,14.456,9.023c10.891,4.706,22.575,6.587,34.1,9.081l.8.175c8.673,1.9,17.525,4.24,25.181,8.755a5.209,5.209,0,0,0,1.726,3.4,3.969,3.969,0,0,0-.736,5.16c3.314,5.259,9.023,8.252,14.147,11.616l.334.22q7.562,5.014,15.254,9.828c10.422,6.525,21.063,12.692,31.853,18.586,17.355,9.481,35.083,18.425,53.132,26.537-1.083,5.33-.688,10.826-1.5,16.191l-.125.766a5.187,5.187,0,0,0,1.493,4.958l.145.133,0-.018.129.118.043.036-.014-.012a4.692,4.692,0,0,0,.487.395l.212.136h0a4.5,4.5,0,0,0,4.374.085l.155-.085.26-.149a4.991,4.991,0,0,0,2.278-5.6c-1.822-4.973-2.51-10.28-4.193-15.286l1.335.6h0l1.759.767c19.028,8.228,40.166,15.158,60.9,9.548,9.161-2.479,17.723-7.723,22.306-16.271,4.51-8.411,5.148-18.176,5.387-27.532a221.629,221.629,0,0,0-1.846-34.718,208.084,208.084,0,0,0-4.165-23.119A5.738,5.738,0,0,0,519,328.827c.9-7.264-.675-14.815-1.639-22.041q-1.413-10.583-3.16-21.116c-2.376-14.176-5.137-28.322-8.351-42.332a556.108,556.108,0,0,0-22.369-73.331l-.8-2.083c-8.4-21.85-18.134-43.235-31.683-62.43-6.481-9.184-13.333-17.51-22.491-24.128a106.88,106.88,0,0,0-28.245-14.077,162.7,162.7,0,0,0-30.733-7.127c-10.621-1.446-21.832-2.332-31.74-6.688,1.253-2.247.178-5.28-1.932-6.674C328.766,42.111,322.2,36.009,315.839,30.372ZM88.6,234.311a.48.48,0,0,0-.873.368c3.452,14.144,6.694,28.317,8.81,42.732,3.821,26.016,3.117,52.372,2.805,78.58l-.016,1.355c-.16,14.117-.383,28.235-.85,42.346-.236,7.132-.7,14.334-.448,21.469.138,3.871,1.17,7.532,1.535,11.357a70.757,70.757,0,0,1-.125,10.089c-.107,2.227,3.179,2.132,3.4,0l.286-2.757a46.751,46.751,0,0,1,1.974-10.3,56.2,56.2,0,0,0,2.512-12.179c.73-6.462,1.055-12.99,1.337-19.5l.193-4.5a721.951,721.951,0,0,0-.77-81.69l-.139-1.941C106.345,284.063,103.07,256.315,88.6,234.311ZM162.193,72.453a.777.777,0,0,0-.413-1.5l-1.816.433c-13.307,3.188-26.373,6.641-38.793,12.572A86.441,86.441,0,0,0,89.859,109.65c-16.253,21.177-23.007,46.913-28.339,72.624-5.925,28.571-11.32,57.246-17.3,85.808l-1.11,5.32c-5.531,26.6-10.752,53.219-14.6,80.136l-.276,1.952c-3.88,27.679-6.214,56.317-1.98,84.069.837,5.49,9.974,4.123,9.617-1.3-1.032-15.682-1.77-31.281-1.057-47s2.189-31.371,4.387-46.953c1.849-13.114,4.607-26.064,7.046-39.073l.383-2.055c2.043-11.065,4.149-22.119,6.251-33.173l3.14-16.551c4.707-24.783,9.507-49.587,14.93-74.213l.322-1.45c5.307-23.693,13.131-48.511,29.05-67.326C116.479,91.372,139.6,81.756,162.193,72.453Zm58.7,251.308a1.262,1.262,0,0,0-2.165,0c-1.637,3.021-1.819,6.876-2.128,10.286l-.032.351c-.394,4.161-.742,8.335-.955,12.509q-.607,11.883-.573,23.766c.025,8.129.189,16.249.627,24.365l.119,2.175c.4,7.054,1.071,14.922,4.422,21.088,1.218,2.242,4.532,1.583,5.238-.684,2.312-7.423,1.125-16.225.532-23.828l-.46-5.932c-.456-5.933-.891-11.869-1.236-17.809-.473-8.127-.862-16.261-1.237-24.392q-.182-3.961-.393-7.923l-.214-3.961C222.252,330.459,222.268,326.823,220.892,323.761ZM480.83,334.282l-1.024-.988c-3.142-3.075-7.112-7.81-11.756-7.516a2.791,2.791,0,0,0-2.648,3.477c.82,3.9,4.794,5.917,7.654,8.295,3.134,2.6,6.087,5.388,9.034,8.2,2.615,2.492,5.13,5.055,7.584,7.7l.918.995c.88.96,7.145,6.627,6.467,8.1l-.037.066a.392.392,0,0,0,.438.57c2.705-.855,2.537-3.174,1.514-5.523-1.965-4.514-5.407-8.69-8.413-12.545a105.926,105.926,0,0,0-9.732-10.822ZM211.089,221.076c2.092-4.945,9.8-4.841,14.174-4.545,11.018.745,22.939,3.532,32.742,8.682,10.163,5.339,17.01,13.893,23.136,23.353l.287.444c5.971,9.281,11.721,20.268,21.07,26.649,4.762,3.251,10.322,6.22,16.1,7.506a2.951,2.951,0,0,0,1.882,1.45l.392.09a21.336,21.336,0,0,0,6.41.525c-.015,1.08,0,2.152-.031,3.175-.078,2.933-.111,5.878-.111,8.813,0,6.149.329,12.31.073,18.458-.227,5.438-1,11.12-3.607,15.982a24.1,24.1,0,0,1-7.494,8.18c-7.506-4.575-15.994-7.363-24.608-9.459-10.418-2.535-21.085-4.228-31.266-7.665a55.71,55.71,0,0,1-13.879-6.763c-4.53-3.124-7.99-7.35-11.55-11.484l-.557-.642c-3.633-4.167-7.6-8.155-12.732-10.413-4.422-1.946-10.25-2.293-14.116-5.3-2.021-1.576-2.191-3.862-2.4-6.2,2.476.354,5.1-.213,7.565-.5l1.278-.15a51.525,51.525,0,0,0,6.911-1.176.451.451,0,0,0,0-.864,60.236,60.236,0,0,0-8.19-1.326l-.654-.082c-2.518-.331-5.166-.829-7.635-.274a20.871,20.871,0,0,0-1.981-4.909c-1.26-2.265-3.645-4.834-3.968-7.48a4.328,4.328,0,0,1,.46-2.421l.128-.238a2,2,0,0,1,.614-.739.5.5,0,0,0,.232.118,3.78,3.78,0,0,0,4.44-1.766c3.737.464,7.814.308,11.318.462l3.543.171a45.162,45.162,0,0,0,11.3-.515.633.633,0,0,0,.15-1.146c-4.373-1.87-9.679-2.467-14.361-3.186-2.615-.4-5.249-.708-7.872-1.061-1.746-.236-3.6-.625-5.409-.718-4.536-5.647-2.092-14.556,4.221-16.987,2.3,1.011,4.368.423,6.88.207s5.022-.361,7.541-.35c5.046.022,10.393,1.35,15.39.778.813-.094,1.568-1.175.76-1.835-3.825-3.121-9.307-4.139-14.162-4.8l-1.006-.134c-1.628-.213-3.607-.525-5.66-.71a3.228,3.228,0,0,0-2.549-1.76c-.372-.051-.746-.081-1.119-.113l.006-.037h0C210.119,228.209,210.252,223.054,211.089,221.076Zm208.938,96.438a2.5,2.5,0,0,0,.176.239l.1.112-.5-.2.229-.147ZM157.832,210.027c12.846-1.38,25.71-1.089,38.594-.718a9.419,9.419,0,0,0,8.093,6.351,15.337,15.337,0,0,0-1.094,14.144,18.2,18.2,0,0,0-9.313,26.012,12.266,12.266,0,0,0-3.8,9.324c.164,3.831,2.447,7.1,4.344,10.275,2.05,3.43,2.119,6.45,2.749,10.292.922,5.622,4.713,9.032,9.593,11.162l-.26,1.02c-1.258,4.9-2.823,10.063-6.418,13.643-4.625,4.606-11.8,4.563-17.91,4.855l-.295.015c-5.6.28-11.189.608-16.782.925l-4.2.234c-6.44.354-12.625.4-17.882-3.861-8.583-6.95-14.467-18.451-18.192-28.632-7.817-21.371-7.911-44.824-4.322-67.081A186.084,186.084,0,0,1,157.832,210.027ZM264.66,245.482l-.094.007a6.226,6.226,0,0,0-5.109,4.984c-.94,3.693-.479,7.031-2.74,10.364-2.326,3.428-3.757,6.172-4.1,10.406a36.005,36.005,0,0,1-.463,5.186l-.281,1.195a11.187,11.187,0,0,0-.395,3.87,2.841,2.841,0,0,0,1.995,2.619c4.078,1.3,7.227-1.7,8.28-5.5.91-3.282-.3-7.194.979-10.277.711-1.709,2.023-3.138,2.765-4.858a15.89,15.89,0,0,0,1.221-5.34c.224-3.505-2.877-7.717-1.147-10.893A1.194,1.194,0,0,0,264.66,245.482Zm54.168-36.173c-2.762-.561-5.894-1.847-8.618-.778a2.088,2.088,0,0,0-.909,3.444c2.053,2.058,5.038,2.173,7.8,2.658l.243.044q4.905.908,9.827,1.723,9.258,1.533,18.567,2.694c6.376.789,12.771,1.492,19.174,2.02l2.479.2c5.409.432,11.037.759,16.344-.07.771-.12.647-1.243,0-1.44-5.814-1.76-12.192-2.232-18.2-2.976-6.39-.793-12.77-1.63-19.133-2.624s-12.7-2.057-19.018-3.234Q323.1,210.176,318.827,209.309Zm-99.641-5.65c2.423-.858,5.089-2.129,7.715-1.7,4.528.734,8.558,5.145,12.143,8.051l-1.8-.35c-9.209-1.77-21.4-3.677-29.134,2.178-.02-.034-.035-.068-.057-.1a16.838,16.838,0,0,0-2.136-2.5c-.076-.071-.148-.145-.22-.219l-.425-.453.974-.338c2.085-.737,4.556-1.689,4.947-1.828l.027-.01C213.878,205.488,216.54,204.6,219.186,203.659ZM294.847,10.64c.379-4.874-7.207-4.834-7.583,0A53.837,53.837,0,0,0,293.931,40.9c.038.068.079.127.118.191-3.2,1.664-6.431,3.26-9.736,4.686-4.228,1.825-8.536,3.488-12.921,4.9-3.966,1.276-8.853,1.78-12.188,4.436-7.032,5.6-4.39,17.22-3.037,24.752l.211,1.189c.673,3.876,1.16,7.853-.474,11.573-1.745,3.973-5.274,6.921-8.422,9.764l-.636.576a42.521,42.521,0,0,0-8.021,9.072c-1.867-3.861-4.413-7.016-7.1-10.568-1.92-2.535-.553-3.37.826-5.846a11.759,11.759,0,0,0,1.561-7.642c-.766-5.021-4.779-8.648-8.774-11.373-4.717-3.217-9.982-5.6-14.859-8.593a203.322,203.322,0,0,1-28.571-20.986c-.243-.216-.663.067-.469.362a111.566,111.566,0,0,0,25.1,27.44c4.059,3.142,8.321,5.748,12.613,8.487l1.234.792c1.723,1.116,3.873,2.608,4.652,4.508s-.888,3.354-1.788,4.938c-2.858,5.027-1.479,9.719,1.909,13.983l.157.2c3.366,4.149,5.918,8.007,7.138,13.307,2.622,11.385-1.03,23.245-4.853,33.933l-.151.422c-2.068,5.761-4.266,11.48-6.062,17.334l-.494,1.618c-1.628,5.385-2.961,10.7-1.135,16.234a2.358,2.358,0,0,0,4.256.556c3.763-6.25,4.7-13.772,7.06-20.644,2.3-6.7,4.939-13.274,7.16-20,2.86-8.658,4.773-17.978,3.735-27.06.031-.053.064-.1.09-.159l.728-1.592c1.985-4.312,3.9-8.077,7.512-11.513,3.765-3.585,7.852-6.758,10.815-11.1,6.436-9.426,2.456-19.912,1.678-30.22l-.089-1.264c-.141-2.14-.219-5.048,1.179-6.529,1.572-1.667,5.26-2.093,7.346-2.831a118.472,118.472,0,0,0,15.766-6.8,100.348,100.348,0,0,0,13.828-8.637l2.2-1.657c3.475-2.622,7.078-5.484,9.406-9.053.269-.411-.188-1.074-.674-.877-3.887,1.578-7.439,4.087-11.076,6.27a4.419,4.419,0,0,0-.2-.4A46.607,46.607,0,0,1,294.847,10.64ZM170.668,66.44c-1.549-4.247-8.608-3.919-8.326,1.127.216,3.877,1.862,7.376,3.367,10.9l.161.377a69.933,69.933,0,0,0,5.5,10.473,133.716,133.716,0,0,0,14.044,18.018c4.654,5.1,10.763,8.223,17.8,7.7a20.341,20.341,0,0,0,8.559-2.454c3.087-1.76,6.439-7.046,10.378-5.766.381.124.736-.434.407-.7-4.547-3.661-9.707,2.016-14.06,3.384a16,16,0,0,1-17.512-5.52,180.29,180.29,0,0,1-12.169-17.763,85.8,85.8,0,0,1-5.08-9.512C172.237,73.4,171.9,69.809,170.668,66.44ZM181.241,40.3a.724.724,0,0,0-1.053-.809c-2.988,1.945-5.576,4.515-8.332,6.767q-4.586,3.749-9.265,7.358c-4.559,3.515.729,9.986,4.742,6.146C172.825,54.51,178.841,47.642,181.241,40.3Zm16.4-20.558c-1.213-4.68-8.392-2.75-7.346,1.875l.034.141a19.825,19.825,0,0,1-6.864,20.372l-.222.18c-3.811,3.05,1.588,8.382,5.362,5.361A27.274,27.274,0,0,0,197.644,19.743Z" transform="translate(-24 7.649)" fill-rule="evenodd"/>
    </g>
    <g id="head" transform="translate(1174 1075.999)">
      <g id="head_mono_Long-Bangs" data-name="head/mono/Long-Bangs" transform="translate(0)">
        <path id="_-Background-2" data-name="ðŸŽ¨-Background" d="M66.316,187.768c7.525-27.164,36.288-39.017,62.193-40.9,70.138-7.291,141.53,31.808,172.624,95.209,24.89,48.142,25.67,98.715-27.834,126.2-2.922,1.611-5.973,3.333-9.09,4.9a68.792,68.792,0,0,1-8.539,6.967c-29.135,19.158-64.893,27.444-99.547,25.647-51.165-1.031-69.43-35.75-80.608-80.273-11.789-44.326-18.382-92.424-9.2-137.75Z" transform="translate(-20.934 -73.68)" fill="#fffcf9" fill-rule="evenodd"/>
        <path id="_-Ink-2" data-name="ðŸ–-Ink" d="M-62.2,417.132c2.389-7.225,5.384-14.23,8.182-21.309a77.828,77.828,0,0,0,1.088-10.673c.388-12.813-2.009-25.736-4.7-38.212-5.464-25.356-11.257-50.448-14.164-76.271-5.194-46.19-2.1-94.22,18.905-136.384,18.2-36.525,49.053-66.4,88.9-77.586a171.036,171.036,0,0,1,36.112-5.864q2.267-.361,4.523-.7c16.98-2.56,34.168-3.835,51.331-2.731,28.46,1.831,56.655,10.01,80.358,26.186,23.865,16.288,40.821,39.126,48.711,66.982,8.208,28.979,7.512,60.363,21.686,87.532,4.187,8.027,9.075,15.658,13.736,23.415,12.368,13.8,25.8,29.141,28.739,48.116,3.631,23.45-9.862,43.268-22.631,61.567-11.542,16.524-27.2,39.345-15.326,59.689,5.6,9.6,14.581,16.78,21.323,25.531a84.958,84.958,0,0,1,15.267,30.666A65.176,65.176,0,0,1,306.1,536.2c-7.378,8.518-16.853,14.15-27.109,18.54-10.5,4.485-20.753,8.744-29.432,16.378a111.964,111.964,0,0,0-11.031,11.308A86.354,86.354,0,0,1,227.4,596.39c-4.624,4.712-13.682-1.739-9.438-7.283l.935-1.22c3.1-4.047,6.224-8.094,9.489-12.009,9.738-15.429,13.485-34.319,8.642-52.34a64.746,64.746,0,0,0-5.224-13.317c-.467,1.22-.978,2.425-1.519,3.616a71.2,71.2,0,0,1-8.81,14.763,39.081,39.081,0,0,1-1.563,9.5c-5.786,19.293-25.129,28.811-42.573,36.218-1.709.731-3.4,1.432-5.055,2.126-4.558,1.906-9.38-4.588-6.538-8.5.745-1.029,1.468-2.081,2.155-3.148,8.182-12.667,12.075-27.817,9.869-42.91-2.323-15.961-11.732-29.169-21.075-41.843-9.175-12.462-19.03-25.18-23.135-40.382-4.544-16.794-.409-33.537,6.6-48.995,6.421-14.145,14.975-27.182,22.147-40.937q-3.684,3.674-7.6,7.1c-2.936,2.57-5.952,5.511-9.431,7.323a2.58,2.58,0,0,1-3.113-4.034c2.678-2.848,6.1-5.048,9.079-7.589,2.855-2.439,5.627-4.976,8.331-7.582,3.329-3.208,6.5-6.566,9.549-10.027a158.567,158.567,0,0,0,6.1-19.1c2.228-8.781,4.288-18.124,4.127-27.226-.161-9.336-5.011-15.874-11.469-22.141-2.735-2.654-5.5-5.276-8.252-7.9-5.87-4.309-11.407-9.123-16.786-13.924-9.584-8.555-18.854-17.6-27.707-26.905q-3.562-3.745-7.056-7.575Q95.89,197.628,84.9,184.081a109.5,109.5,0,0,1-20.783-10.264c2.849,2.885,5.727,5.734,8.591,8.605,6.377,6.4,13,12.828,20.4,18.043a.829.829,0,0,1-.636,1.506,80.531,80.531,0,0,1-26.407-9.986c-8.35-5.07-15.706-11.958-22.572-18.869a84.891,84.891,0,0,1-11.06-6.231c-.183-.117-.365-.241-.548-.359,3.375,10.7,8.327,22.807,18.883,26.62.343.124.321.694-.088.672-8.893-.522-16.04-4.523-21.683-10.354a144.333,144.333,0,0,1-13-10.493,155.2,155.2,0,0,1-11.4-11.616c5.033,9.971,10.671,19.72,16.232,29.359.292.511-.321,1.205-.847.847C8.239,183.614-.666,173.357-7.949,161.23c-1.075-1.785-2.1-3.6-3.1-5.428q1.133,4.292,2.463,8.533c1.6,5.12,3.173,10.252,4.775,15.369A80.546,80.546,0,0,0-.742,187.81c.827,1.9,1.91,3.789,2.078,5.869a.207.207,0,0,1-.26.2c-4.681-1.17-9.04-6.509-12.375-9.816a54.685,54.685,0,0,1-5.2-5.994c-.3,12.277-.5,24.556-.232,36.871.5,22.616,1.964,45.225,3.835,67.768,1.651,19.929,2.871,40.843,13.989,58.163,8.605,13.4,22.558,22.681,37.716,27.175q2.005.6,4.032,1.081c21.944,5.208,43.8-.694,63.2-11.126,5.829-3.134,10.811,5.368,5.187,8.868-21.053,13.106-47.738,17.569-71.567,11.7.752,28.145-13.12,54.846-26.919,78.719C5.025,470.642-2.7,483.915-8.161,498.4A140.424,140.424,0,0,0-17,536.591c-1.256,15.472-.022,31.032,2.14,46.372.117.832.234,1.673.358,2.5.482,3.3-2.476,6.056-5.683,4.369C-34.364,582.386-40.478,566.5-44.2,551.822a275.062,275.062,0,0,1-7.152-41.9,128,128,0,0,0-4.7,16.348c-.169.8-.329,1.593-.489,2.389-.92,4.653-7.962,4.325-9.087,0-.2-.782-.4-1.563-.584-2.352a196.666,196.666,0,0,1-4.3-71.991A198.036,198.036,0,0,1-62.2,417.132" transform="translate(74 -47)" fill-rule="evenodd"/>
      </g>
      <g id="face_Calm" data-name="face/Calm" transform="matrix(-0.998, 0.07, -0.07, -0.998, 208.19, 289.284)">
        <path id="_-Ink-3" data-name="ðŸ–-Ink" d="M85.317,1.231a28.76,28.76,0,0,0-30.324,8.818,19.946,19.946,0,0,0-5.265,13.238,2.163,2.163,0,0,0,.516,1.386,2.414,2.414,0,0,0,1.287.773,2.357,2.357,0,0,0,1.5-.131,1.993,1.993,0,0,0,.992-.975c.561-.738,1.12-1.464,1.682-2.171,4.515-5.576,8.887-9.742,15.677-11.237a19.1,19.1,0,0,1,10.738.786,22.993,22.993,0,0,1,9.44,6.633,5.045,5.045,0,0,0,3.858,1.905,5.917,5.917,0,0,0,4.135-1.817,6.391,6.391,0,0,0,1.917-4.177,5.561,5.561,0,0,0-1.587-4.1A32.279,32.279,0,0,0,85.317,1.231Zm-.166,69.827c5.5-3.346,13.892-11.148,7.97-19.443C86.151,44.3,76.116,52.687,71.17,56.48c-4.586,2.939-9.738-4.621-5.483-8.053,35.736-26.457,50.238,21.756,22.249,26.565C84.854,75.522,83.709,72.093,85.151,71.058ZM33.659,85.781a6.142,6.142,0,0,1-6.157.47c-1.8-.819-4.964-3.552-7.164-7.144a14.173,14.173,0,0,1-2.35-8.344,1.888,1.888,0,0,0-.613-1.592,2.384,2.384,0,0,0-1.329-.59,3.461,3.461,0,0,0-1.4.125A2.085,2.085,0,0,0,13.262,69.9c-1.54,4.091-.877,8.656.85,12.775,2.33,5.558,6.561,10.214,9.333,11.715a15.6,15.6,0,0,0,15.091.071c4.043-2.228,6.572-5.825,9.087-9.492.535-.78,1.065-1.553,1.614-2.314a4.669,4.669,0,0,0,.783-4.329,5.593,5.593,0,0,0-3.177-3.28,5.725,5.725,0,0,0-4.429-.066A5.635,5.635,0,0,0,39.4,78.162c-1.179,2.833-3.143,5.957-5.741,7.619Zm89.854-6.3a4.176,4.176,0,0,0-3.5-.419,4.981,4.981,0,0,0-2.053,1.226,4.093,4.093,0,0,0-1.142,2.065,8.457,8.457,0,0,1-2.968,4.942,5.958,5.958,0,0,1-4.737,1.246,9.086,9.086,0,0,1-5.1-3.057,11.481,11.481,0,0,1-1.1-1.613,11.407,11.407,0,0,0-2.117-2.778,2.062,2.062,0,0,0-1.31-.493,1.969,1.969,0,0,0-.584.091c-1.945,1.951-2.319,3.433-2.256,4.9A8.95,8.95,0,0,0,98.3,90.144a18.026,18.026,0,0,0,9.621,6.846,14.328,14.328,0,0,0,11.266-2.43,15.969,15.969,0,0,0,6.525-9.986,5.329,5.329,0,0,0-.267-2.949A4.115,4.115,0,0,0,123.513,79.48ZM42.566,122.168c-2.424-2.361-5.292-2.727-8.194-3.053a38.61,38.61,0,0,1-4.167-.615,39.209,39.209,0,0,1-10.063-3.674,37.28,37.28,0,0,1-9.432-6.685c-.612-.655-1.189-1.343-1.766-2.032-.527-.628-1.034-1.233-1.569-1.816-.614-.67-1.2-1.372-1.777-2.072a8.932,8.932,0,0,1-.5-.887c-.109-.227-.235-.482-.38-.754-.2-.374-.429-.784-.672-1.154-.4-.679-.62-.865-.807-.948a1.661,1.661,0,0,0-.891-.17,1.49,1.49,0,0,0-.77.374C.332,99.732-.035,101.457,0,103.289a19.865,19.865,0,0,0,2.027,7.748,41.838,41.838,0,0,0,8.909,12.245,43.352,43.352,0,0,0,14.01,8.533c3.265,1.214,7.046,2.329,10.6,2.188a10.489,10.489,0,0,0,7.024-2.763,6.121,6.121,0,0,0,1.835-4.485A6.406,6.406,0,0,0,42.566,122.168Zm85.876-21.624a1.326,1.326,0,0,0-.605-.531,1.39,1.39,0,0,0-.793-.1,1.411,1.411,0,0,0-.718.348,1.345,1.345,0,0,0-.4.7c-1.609,7.068-4.734,12.326-11.4,15.717a48.141,48.141,0,0,1-10.624,3.573c-1.038.246-2.134.4-3.239.566-3.461.505-6.947,1.084-9.2,3.882a7.456,7.456,0,0,0-1.608,5.811,6.18,6.18,0,0,0,3.36,4.577c4.908,2.537,11.006.048,15.962-2.073.367-.157.728-.312,1.081-.461a37.124,37.124,0,0,0,12.9-8.608,27.961,27.961,0,0,0,6.63-12.252C130.676,107.816,130.465,103.859,128.443,100.543Z" transform="translate(0 0)" fill-rule="evenodd"/>
      </g>
      <ellipse id="Ellipse_1" data-name="Ellipse 1" cx="19.75" cy="8.887" rx="19.75" ry="8.887" transform="translate(181.343 236.998)" fill="#da5552"/>
      <ellipse id="Ellipse_2" data-name="Ellipse 2" cx="19.75" cy="8.887" rx="19.75" ry="8.887" transform="translate(52.97 236.998)" fill="#da5552"/>
      <path id="Path_1" data-name="Path 1" d="M0,0,7.145,5.141" transform="translate(81.13 216.71) rotate(173)" fill="none" stroke="#000" stroke-linecap="round" stroke-width="3"/>
      <path id="Path_4" data-name="Path 4" d="M0,4.854,4.811,0" transform="translate(189.829 214.854) rotate(7)" fill="none" stroke="#000" stroke-linecap="round" stroke-width="3"/>
      <path id="Path_2" data-name="Path 2" d="M0,0,5.906,4.249" transform="translate(82.118 211.772) rotate(173)" fill="none" stroke="#000" stroke-linecap="round" stroke-width="3"/>
      <path id="Path_5" data-name="Path 5" d="M0,4.012,3.977,0" transform="translate(189.04 210.752) rotate(7)" fill="none" stroke="#000" stroke-linecap="round" stroke-width="3"/>
      <path id="Path_3" data-name="Path 3" d="M0,0,5.906,4.249" transform="translate(86.068 207.822) rotate(173)" fill="none" stroke="#000" stroke-linecap="round" stroke-width="3"/>
      <path id="Path_6" data-name="Path 6" d="M0,4.012,3.977,0" transform="translate(186.293 206.802) rotate(7)" fill="none" stroke="#000" stroke-linecap="round" stroke-width="3"/>
    </g>
  </g>
</svg>
