<svg xmlns="http://www.w3.org/2000/svg" width="472.442" height="741.159" viewBox="0 0 472.442 741.159">
  <g id="sweater" transform="translate(-371.378 -200)">
    <g id="body_mono_Sweater" data-name="body/mono/Sweater" transform="translate(371.378 508.525)">
      <path id="_-Background" data-name="ðŸŽ¨-Background" d="M208.876,412.608c-34.618-.745-66.131,1.346-99.466-5.415l-.043-1.123c-7.15-.206-4.783-6.888-3.346-11.561C-28.511,388.524,59.239,60.614,152.469,38.567a93.01,93.01,0,0,1,14.559-1.24c6.49-1.982,12.887-2.334,19.671-4.141.651-2.376.758-3.749,3.636-3.046,10.331-9.866,28.92-18.953,35.192.3,8.255-11.473,12.988-24.888,16.437-38.473l.558.091c1.466-3.612,3.865-8.183,6.784-8.937,4.55-1.506,13.129-1.159,18.076-1.77,10.725-.744,23.183-2.566,33.463-.106,25.69,6.289,14.556,36.615,35.385,56.358,9.559-3.957,24.54-2.872,33.7,1.839,5.9,4.723,2.94,10.047,1.906,15.04,65.777-5.929,83.278,70.362,96.852,120.655,5.446,16.731,10.851,28.074,20.126,40.991,12.049,15.1,18.815,34.875,6.47,50.806,17.624,35.166-1.509,68.219-21.752,94.766-3.964,4.251-10.394,16.08-16.2,16.889-1.577,1.441-4.095,3.214-5.871,4.5L453.6,385.9c.256,2.594.273,5.382,2.047,7.7,1.707,1.663,3.531,3.368,3.582,5.85-2.72,3.156-6.232-.369-8.812-1.937-.989,1.944-.847,6.562-4.017,6.383-78.6,5.391-159.1,8.925-237.521,8.717" transform="translate(-33.549 20)" fill="#fffcf9" fill-rule="evenodd"/>
      <path id="_-Ink" data-name="ðŸ–-Ink" d="M237.88,1c6.25,8.138-3.934,33.021-8.62,41.652,32.043,13.379,67.8,19.212,102.028,11.614-8.89-8.5-18.712-35.677-11.394-45.229l.336,1.719c2.481,12.634,5.516,25.74,14.628,35.4,12.9-3.425,44.276-3.118,39.138,17.235,79.657.187,80.318,96.574,106.876,150.354,12.742,20.541,32.472,41.611,15.952,66.293a86.115,86.115,0,0,1,6.35,24.422c2.595,27.356-14.145,50.771-29.237,72-5.317,5.832-9.765,15.609-17.494,18.1-.794.682-1.62,1.329-2.468,1.944,1.535,2.235.29,5.79,2.087,7.748l.7.68c1.179,1.156,2.8,2.871,3.122,4.406l.153,1.326q.1.779.042-.085l-.021-.182c-.025-.25.012-.23.107.06l.041.131a4.562,4.562,0,0,1-3.226,5.594c-6.935,3.716-14.307-7.16-11.986-14.438-38.452,16.585-118.322-13.41-156.96-28.279-7.384-2.965-14.383-6.815-21.85-9.537l-.556-.271c-8.618-4.243-17.21-10.4-27.317-7.935-42.523,18.211-82.064,48.532-129.2,54.512,7.374,14.083-14.327,15.97-9.98.239-128.28-16.642-48.343-292.339,19.8-345.592C140.625,44.224,155.22,48.962,181.579,43a5.019,5.019,0,0,1,5.181-3.766c9.368-8.909,28.766-17.588,36.77-3.118a89.686,89.686,0,0,0,10.68-24.889C235.158,7.753,235.5,3.787,237.88,1ZM187.663,414.152c-6.84-5.418,3.552-13.96,9.473-10.516,1.829,2.238-4.49.005-3.7,4.962C194.587,411.891,191.15,416.275,187.663,414.152Zm139.6-6.726c-4.867-9.161-.594-13.243,6.716-6.11C340.653,406.351,331.7,414.531,327.263,407.426Zm-67.784-.856c-6.863-3.687-8.57-20.508,2.57-12.422C271.961,397.673,269.238,410.281,259.479,406.57ZM182.515,47.86c-13.722,3.793-29.032,2.159-41.618,10.016-30.788,19.38-48.494,52.789-61.813,85.6l-.4.995c-27.027,66.541-48.658,143.9-25.916,214.6,11.487,32.165,39.761,45.957,71.943,34.784,80.767-26.163,148.263-89.059,234.156-99.772,1.211-9.943-1.537-19.743-5.046-29.039-52.694,2.194-103.212,19.254-153.707,32.986-2.94,12.881-17.634,27.883-26.437,37.876-7.953,10.646-27.626,13.851-30.046-2.516l-.387.438c-6.489,7.277-20.724,19.886-25.094,4.18-.984-8.238,4.295-15.364,6.891-22.858l-.274.2c-4.8,3.586-24.655,20.511-26.037,9.241a52.818,52.818,0,0,1,9.549-29.769,107.018,107.018,0,0,1,21.857-21.531c.433-2.519,1.219-4.955,1.809-7.446-.9-9.369,2.794-18.164,3.763-27.338,2.234-8.607,2.721-24.722,8.953-30.777,4.784,5.1.044,24.528-.2,31.962-1.708,9.036-.969,18.269-4.244,27.056a66.761,66.761,0,0,1,29.3-8.046c1.024-19.728,28.953-12.839,41.889-11.308,19.744-7.021,102.643-4.561,116.349,10.2,6.842-.794,13.383-1.42,20.328-1.9,8.077-5.138,30.36-3.035,33.795,7.069,8.982,2.659,16.785,7.194,24.661,12.374,2.438-40.2-8.227-79.8-5.63-120.057.234-2.339,1.316-4.367,1.271-6.746-.005-.282.406-.271.431,0,3.88,11.754,4.618,24.3,6.8,36.49,2.873,21.26,7.919,42.274,9.593,63.668.729,17.979-2.192,37.208,4.979,54.252,1.022,2.426-.664,6.378-3.017,7.415-19.653,8.254-42.517,2.321-60.464-7.741-38.241,12.242-75.651,26.783-110.88,46.2,6.78,1.785,12.877,5.754,19.015,9.05,8.738,3.024,17.416,6.217,26.145,9.268,43.2,13.061,88.409,30.595,134.051,27.936,14.032-2.4,20.343-8.406,28.673-19.145l1.375-1.783c14.882-19.25,31.891-39.635,34.385-64.606.568-8.1-.2-16.168-.671-24.243-2.005,2.052-4.157,3.969-6.239,5.953-2.89,2.753-6.584-.718-5.166-3.985,3.066-9.284,8.47-18.043,9.4-27.869.158-9.242-5.9-17.464-11.252-24.489-41.646-51.253-23.48-158.874-105.965-169.324-35.2,74.014-155.21,43.246-189.821-15.7l-1.038-1.821ZM90.075,359.835c.347-10.089,16.406,3.047,14.923,8.553-.9,7.61-10.129,4.055-12.218-1.083A20.528,20.528,0,0,1,90.075,359.835Zm317.962-10.382c2.315-4.223,16.1,7.92,8.957,11.908-4.84,2.552-6.692-3.427-7.743-7.016C408.677,352.843,407.59,351.11,408.037,349.453ZM172.2,354.992c-8.685-5.153,10.326-12.092,11.04-3.688C183.517,357.01,175.817,356.706,172.2,354.992Zm161.4-22.2c4.362-5.817,4.465,14.786,1.879,16.185a2.543,2.543,0,0,1-4.583-.6C329.064,343.131,331.823,337.733,333.6,332.8Zm-206.4,3.626-.094.349c-.484,1.891.655-.6.215-.235C127.284,336.495,127.242,336.459,127.2,336.422Zm94.3-49.274c-19.871-22.627-55.715-28.242-82.5-14.819-3.946,1.156-7.408,4.395-10.96,6.513.892-.323,1.8-.6,2.708-.827-11.766,10.015-21.782,23.731-23.59,39.348a94.6,94.6,0,0,0,27.583-25.336c2.444-4.264,9.464-1.335,7.969,3.359-4.823,13.257-12.2,26.051-15.293,39.751,11.56-8.368,20.091-20.683,24.888-34.056,2.017-5.736,10.993-3.4,9.2,2.537-2.368,7.861-4.9,15.7-7.143,23.594l-.606,2.156c-.753,2.719-1.2,5.208,2.034,5.955C166.2,336,180.151,313,186.353,305.161c3.043-3.707,5.735-11.749,11.481-10.577C204.987,289.907,213.612,289.359,221.5,287.149Zm229.114,36.186a4.311,4.311,0,0,1,4.219-1.218l.153.055c4.764,1.666,1.071,8.185-3.014,5.892a16.667,16.667,0,0,0-4.551-2.485C446.426,324.556,450.019,324.094,450.611,323.335Zm-221.7-19.028c1.4-6.573,14.388,2.365,9.767,6.994C234.288,314.654,229.281,308.511,228.907,304.306Zm-156.439.917c12.191-7.936,13.66,11.282-4.366,5.668C66.619,308.648,70.978,306.449,72.468,305.223Zm312.056-39.555c6.662,7.971,9.292,18.387,10.472,28.5a35.457,35.457,0,0,1,.643,6.238,40.226,40.226,0,0,0,13.682-.053,72.272,72.272,0,0,1-2.19-12.123C401.123,279.273,394.215,270.861,384.524,265.668Zm-17.773,25.353q.03,1.645-.1,3.3a140.306,140.306,0,0,1,17.46,3.608l-.037-1.751c-.013-.588-.027-1.177-.047-1.758A21.55,21.55,0,0,1,366.752,291.021Zm15.3-13.523c-6.581-2.664-12.612-4.329-19.689-3.885a45.8,45.8,0,0,1,4.158,14.059,28.565,28.565,0,0,0,8.93.9c2.823-.145,5.429-1.5,8.114-1.563A68.206,68.206,0,0,0,382.056,277.5Zm-62.6,2.248c4.163-1.665,10.294,2.923,5.727,6.519-3.325,2.258-7.873-.77-10.571-2.833C313.126,281.723,318.157,280.056,319.457,279.746Zm-82.519-15.3c-1.8,5.546-13.669,3.111-19.1,6.1l.481.277c5.223,3.043,10.895,7.368,11.866,12.865q10.373-4.05,20.9-7.671A60.167,60.167,0,0,0,236.938,264.447Zm80.591-5.437c-31.212-11.191-65.23-10.863-97.972-9.821l.861.259c14.116,4.283,30.643,10.937,38,24.1A369.8,369.8,0,0,1,317.53,259.009Zm60.767,8.835c-4.8-8.5-14.152-12.307-23.3-11.668l-1.441.236h0a8.852,8.852,0,0,1,2.774,1.544,3.937,3.937,0,0,1,.149,5.378,79.557,79.557,0,0,1,4.664,7.79C366.185,267.607,372.233,267.1,378.3,267.845Zm84.324.186c-10.926,6.412-18.834-23.612-5.064-17.162l.981,1.052C462.527,256.227,468.694,263.5,462.621,268.031Zm-256.2-14.058c-3.49,2.832-7.553,4.886-11.087,7.689a92.032,92.032,0,0,1,16.924,5.993,41.574,41.574,0,0,1,15.3-7.873A95.166,95.166,0,0,0,206.422,253.973Zm-143.071.633.051-.136c1.692-4.75,11.9-11.8,16.972-9.951a.462.462,0,0,1,.458.458l.083.588c.286,2.089.433,4.133-.946,6-2.468,3.978-4.825,8.934-9.572,10.485a5.657,5.657,0,0,1-7.047-7.44Zm131.436-1.981-1.559-.083c-7.161-.4-17.473-1.051-20.97,6.092a85.217,85.217,0,0,1,18.275,1.917A27.788,27.788,0,0,1,194.787,252.625ZM233.9,222.278c-1.09-2.08,2.952.2,3.892-.12,1.745.107,3.32.465,4.307,2.034,1.581,2.516-1.491,5.214-3.911,3.911C235.855,226.814,236.416,223.448,233.9,222.278Zm137.2-11.64.149-.015c2.414-.269,12.754-2.622,12.727-.065l-.2.278c-3.252,4.634-7.492,13.757-14.108,10.5C365.419,218.921,366.272,211.687,371.1,210.639Zm-72.021-.378c1.909-3.518,6,4.651,7.216,6.1a3.319,3.319,0,0,1-5.727,3.348A13.834,13.834,0,0,1,299.079,210.261Zm-179.118-8.073c2.743-1.389,9.679-1.514,7.78,3.174-3.7,4.906-10.486,2.531-14.63-.611C110.992,202.314,118.644,203.305,119.961,202.188Zm66.671-18.2c-.248-3.513,3.67-4.769,6.312-3.622,4.714,2.048,8.368,9.583,6.876,14.456-1.2,4.834-8.517,5.9-10.842,1.417C187.641,192.1,187.461,188.141,186.632,183.988Zm242.829,6.558c5.415-1.146,11.093-4.775,16.654-3.753a2.462,2.462,0,0,1,1.07,4.055C446.453,194.15,426.414,193.415,429.46,190.546Zm-156.548-12.6c2.3-4.181,7.6-8.617,12.682-8.254,3.117-.1,4.335,4.379,1.589,5.867l-.091.039C285.368,176.281,272.294,179.636,272.912,177.942Zm71.964-6.739c-7.8-1.118-7.752-19.875-3.108-16.212,1.583,4.6,5.6,7.341,7.9,11.419C350.831,169.207,347.475,171.994,344.877,171.2Zm-236.771-4.151c3.314.507,20.521-9.958,17.368-1.582-2.052,2.348-4.649,2.4-7.561,2.621l-.079-.008C116.34,167.986,105.486,169.275,108.105,167.051Zm119.011-17.034c-3.443-.4-15.967-26.565-9.841-24.917l.935.612c6.787,4.481,14.27,10.207,17.3,17.854C236.7,148.125,231.377,152.935,227.116,150.017Zm77.033-10.764c.5-.225.934.48.435.745a18.179,18.179,0,0,0-5.774,5.537c-4.577,5.724-9.992-4.392-2.957-5.153A18.66,18.66,0,0,0,304.149,139.254ZM158.076,107.581c6.351-1.636,9.422,6.739,4.3,10.2-2.561,2.2-26.624,9.071-28.065,6.312C137.33,119.186,152.413,109.3,158.076,107.581Zm238.572,1.173c17.583-1.439,18.055-4.657,5.636,9.682C394.953,124.87,387.523,111.687,396.648,108.753ZM314.35,65.9a156.813,156.813,0,0,1-18.335.475c.942,2.017.125,4.952-2.55,4.545-1.259,8.166-1.831,16.463-3.419,24.574-.417,1.9-1.008,3.738-1.573,5.588,11.642.859,23.457.377,34.8-2.5C319.061,88.014,317.232,76.837,314.35,65.9Zm-49.183-3.482a5.745,5.745,0,0,1-.7,2.411c-5.266,9.123-9.89,18.642-15.456,27.572a145.448,145.448,0,0,0,37.375,8.5c-1.925-11.618-.217-23.466-.615-35.181A166.038,166.038,0,0,1,265.166,62.413Zm77.144-1.347a154.034,154.034,0,0,1-18.542,3.75,2.389,2.389,0,0,1-1.414,2.266c1.369,10.2,4.067,20.233,4.106,30.629,13.022-3.191,23.317-12.053,31.858-22.047l-1.941-1.415C351.186,70.45,345.948,66.4,342.311,61.067ZM222.279,38.013c-7.554-4.635-18.011-2.661-24.129,3.376-2.711,2.418-5.064,5.686-8.151,7.585a4.238,4.238,0,0,1-1.176.5c2.126,4.021,5.376,7.875,8.123,11.191,14.731,12.862,31.313,23.664,49.539,30.771.746-10.934,4.53-21.553,8.854-31.6q-6.046-1.822-11.908-4.2c-.5,2.629-2.962,4.66-4.52,6.7-3.537,4.142-5.894,9.206-9.262,13.42-3.751,3.931-10.125-1.083-7.429-5.732a61.221,61.221,0,0,1,16.481-16.4,95.067,95.067,0,0,1-12.365-6.739c-.168.175-.341.342-.517.5-.265-1.637-2.518-1.206-3.716-.938-.854-.723-2.012.188-2.963.424a4.036,4.036,0,0,1-.339-.8c-4.883,4.823-8.555,12.461-14.855,15.341-2.6.716-5.6-1.861-4.615-4.615C201,52.57,214.517,43.6,218.983,41.224c-.977-1.422-.2-2.124,1.389-1.913a.784.784,0,0,1,1.123-.157C221.77,38.783,222.028,38.4,222.279,38.013ZM124.344,80.495c3.062.015,6.677-1.261,9.426.507,4.042,4.627-5.976,6.217-9.9.644A.682.682,0,0,1,124.344,80.495Zm225.892-28.5a4.507,4.507,0,0,1,.852,3.888c3.831,5.849,5.935,12.471,7.861,19.049l.539-.669c8.728-10.908,13.677-20.8-5.5-21.875Q352.113,52.119,350.236,51.991ZM167.451,67.339c-15.845-11.573,18.25-5.25,8.427,1.824C172.855,70.261,169.958,69.039,167.451,67.339Z" transform="translate(-31 11.079)" fill-rule="evenodd"/>
    </g>
    <g id="head">
      <g id="head_mono_Long-Bangs" data-name="head/mono/Long-Bangs" transform="translate(410.7 200)">
        <path id="_-Background-2" data-name="ðŸŽ¨-Background" d="M316.377,188.3c-7.62-27.508-36.748-39.512-62.981-41.417C182.369,139.5,110.073,179.092,78.585,243.3c-25.206,48.752-25.995,99.965,28.186,127.8,2.959,1.631,6.049,3.375,9.2,4.958a69.663,69.663,0,0,0,8.647,7.055c29.5,19.4,65.715,27.792,100.808,25.972,51.813-1.045,70.31-36.2,81.629-81.29C319,282.9,325.673,234.2,316.377,188.3Z" transform="translate(38.607 -72.764)" fill="#fffcf9" fill-rule="evenodd"/>
        <path id="_-Ink-2" data-name="ðŸ–-Ink" d="M314.994,421.821c-2.419-7.316-5.452-14.41-8.285-21.579a78.812,78.812,0,0,1-1.1-10.808c-.393-12.975,2.034-26.061,4.756-38.7,5.533-25.677,11.4-51.087,14.344-77.238,5.26-46.775,2.13-95.413-19.145-138.112C287.128,98.4,255.888,68.152,215.534,56.819a173.2,173.2,0,0,0-36.569-5.939q-2.3-.365-4.58-.711c-17.195-2.592-34.6-3.884-51.981-2.766C93.584,49.258,65.032,57.541,41.029,73.922,16.862,90.416-.309,113.544-8.3,141.753c-8.312,29.346-7.607,61.128-21.96,88.641-4.24,8.128-9.19,15.856-13.91,23.712-12.525,13.975-26.123,29.51-29.1,48.725-3.677,23.747,9.987,43.816,22.918,62.347,11.688,16.733,27.548,39.843,15.52,60.445-5.674,9.72-14.765,16.992-21.593,25.854a86.034,86.034,0,0,0-15.461,31.055A66,66,0,0,0-57.975,542.4c7.472,8.625,17.066,14.329,27.452,18.775,10.63,4.542,21.016,8.855,29.8,16.585a113.38,113.38,0,0,1,11.17,11.451,87.445,87.445,0,0,0,11.266,14.137c4.683,4.771,13.856-1.761,9.558-7.375l-.947-1.235c-3.144-4.1-6.3-8.2-9.609-12.162-9.861-15.624-13.656-34.754-8.751-53a65.569,65.569,0,0,1,5.29-13.486c.473,1.235.991,2.456,1.538,3.662a72.1,72.1,0,0,0,8.921,14.95,39.576,39.576,0,0,0,1.583,9.617c5.859,19.537,25.447,29.176,43.113,36.677,1.731.74,3.44,1.45,5.119,2.153,4.616,1.93,9.5-4.646,6.621-8.611-.755-1.042-1.487-2.108-2.182-3.188-8.285-12.827-12.228-28.17-9.994-43.453,2.352-16.164,11.88-29.538,21.342-42.373,9.291-12.62,19.271-25.5,23.428-40.894,4.6-17.007.414-33.962-6.687-49.615-6.5-14.324-15.164-27.526-22.428-41.456q3.731,3.721,7.7,7.193c2.973,2.6,6.028,5.581,9.551,7.415a2.613,2.613,0,0,0,3.152-4.085c-2.712-2.884-6.182-5.112-9.194-7.685-2.891-2.47-5.7-5.039-8.436-7.678-3.371-3.248-6.578-6.65-9.67-10.154a160.579,160.579,0,0,1-6.173-19.346c-2.256-8.892-4.342-18.353-4.18-27.571.163-9.454,5.075-16.075,11.614-22.422,2.77-2.687,5.566-5.343,8.357-8,5.945-4.364,11.552-9.239,17-14.1,9.706-8.663,19.093-17.821,28.058-27.246q3.607-3.793,7.145-7.671,12.345-12.668,23.477-26.385a110.894,110.894,0,0,0,21.046-10.394c-2.885,2.922-5.8,5.807-8.7,8.714-6.458,6.48-13.167,12.99-20.654,18.271a.839.839,0,0,0,.644,1.525,81.551,81.551,0,0,0,26.741-10.112c8.455-5.134,15.9-12.11,22.858-19.108a85.966,85.966,0,0,0,11.2-6.31c.185-.118.37-.244.555-.363-3.418,10.831-8.432,23.1-19.123,26.957-.348.126-.326.7.089.681,9.006-.528,16.243-4.58,21.957-10.485a146.158,146.158,0,0,0,13.165-10.626A157.163,157.163,0,0,0,247.351,162.8c-5.1,10.1-10.806,19.97-16.437,29.731-.3.518.325,1.221.858.858,11.888-8.048,20.905-18.435,28.281-30.715,1.089-1.808,2.128-3.646,3.142-5.5q-1.147,4.346-2.494,8.641c-1.619,5.185-3.214,10.382-4.836,15.564a81.566,81.566,0,0,1-3.11,8.208c-.837,1.92-1.934,3.837-2.1,5.943a.21.21,0,0,0,.263.2c4.74-1.185,9.154-6.591,12.532-9.94a55.376,55.376,0,0,0,5.264-6.07c.3,12.433.508,24.868.235,37.338-.51,22.9-1.989,45.8-3.884,68.626-1.672,20.181-2.907,41.36-14.166,58.9-8.714,13.574-22.844,22.969-38.193,27.519q-2.031.61-4.083,1.095c-22.222,5.274-44.356-.7-64-11.266-5.9-3.174-10.948,5.436-5.252,8.98,21.32,13.272,48.343,17.792,72.474,11.844-.761,28.5,13.286,55.541,27.26,79.716,7.819,13.53,15.646,26.971,21.172,41.641a142.2,142.2,0,0,1,8.95,38.674c1.272,15.668.022,31.425-2.168,46.96-.118.843-.237,1.694-.362,2.537-.488,3.337,2.508,6.133,5.755,4.424,14.359-7.545,20.55-23.628,24.316-38.5A278.546,278.546,0,0,0,304,515.785a129.625,129.625,0,0,1,4.764,16.555c.171.807.333,1.613.5,2.42.932,4.712,8.063,4.379,9.2,0,.207-.792.407-1.583.592-2.382a199.157,199.157,0,0,0,4.357-72.9,200.544,200.544,0,0,0-8.418-37.653" transform="translate(74 -47)" fill-rule="evenodd"/>
      </g>
      <g id="face_Calm" data-name="face/Calm" transform="matrix(0.998, 0.07, -0.07, 0.998, 610.431, 355.401)">
        <path id="_-Ink-3" data-name="ðŸ–-Ink" d="M140.4,191.7a29.125,29.125,0,0,1-30.708-8.93,20.2,20.2,0,0,1-5.332-13.406,2.191,2.191,0,0,1,.523-1.4,2.445,2.445,0,0,1,1.3-.782,2.387,2.387,0,0,1,1.524.133,2.018,2.018,0,0,1,1,.988c.568.747,1.135,1.483,1.7,2.2,4.572,5.646,9,9.865,15.875,11.379a19.337,19.337,0,0,0,10.874-.8,23.285,23.285,0,0,0,9.559-6.717,5.109,5.109,0,0,1,3.907-1.93,5.992,5.992,0,0,1,4.188,1.84,6.472,6.472,0,0,1,1.941,4.23,5.631,5.631,0,0,1-1.607,4.155A32.688,32.688,0,0,1,140.4,191.7Zm-.168-70.712c5.575,3.388,14.068,11.289,8.071,19.689-7.058,7.406-17.221-1.086-22.23-4.927-4.644-2.976-9.861,4.679-5.553,8.155,36.189,26.792,50.875-22.032,22.531-26.9C139.929,116.464,138.77,119.936,140.23,120.985ZM88.086,106.075a6.22,6.22,0,0,0-6.235-.476c-1.825.83-5.027,3.6-7.255,7.234a14.353,14.353,0,0,0-2.38,8.449,1.912,1.912,0,0,1-.62,1.612,2.414,2.414,0,0,1-1.346.6,3.5,3.5,0,0,1-1.418-.127,2.111,2.111,0,0,1-1.4-1.208c-1.56-4.143-.888-8.766.86-12.937,2.359-5.629,6.644-10.343,9.451-11.863a15.8,15.8,0,0,1,15.282-.072c4.095,2.257,6.655,5.9,9.2,9.612.542.79,1.078,1.573,1.634,2.343a4.728,4.728,0,0,1,.793,4.384,5.663,5.663,0,0,1-3.218,3.321,5.8,5.8,0,0,1-4.485.067,5.707,5.707,0,0,1-3.05-3.221c-1.194-2.869-3.183-6.032-5.814-7.715Zm90.993,6.381a4.229,4.229,0,0,1-3.548.424,5.044,5.044,0,0,1-2.079-1.242,4.145,4.145,0,0,1-1.156-2.091,8.564,8.564,0,0,0-3.005-5,6.034,6.034,0,0,0-4.8-1.262,9.2,9.2,0,0,0-5.162,3.1,11.627,11.627,0,0,0-1.116,1.634,11.551,11.551,0,0,1-2.144,2.813,2.088,2.088,0,0,1-1.327.5,1.994,1.994,0,0,1-.591-.092c-1.969-1.976-2.348-3.476-2.285-4.964a9.063,9.063,0,0,1,1.675-4.611,18.255,18.255,0,0,1,9.743-6.932,14.509,14.509,0,0,1,11.409,2.46A16.171,16.171,0,0,1,181.3,107.3a5.4,5.4,0,0,1-.27,2.987A4.167,4.167,0,0,1,179.078,112.456ZM97.105,69.227c-2.454,2.391-5.359,2.762-8.3,3.091a39.1,39.1,0,0,0-4.22.623A39.706,39.706,0,0,0,74.4,76.663a37.752,37.752,0,0,0-9.552,6.769c-.62.663-1.2,1.36-1.789,2.057-.533.636-1.047,1.249-1.589,1.839-.622.678-1.212,1.389-1.8,2.1a9.047,9.047,0,0,0-.508.9c-.11.23-.238.488-.384.764-.2.379-.435.794-.681,1.169-.409.687-.628.876-.818.96a1.682,1.682,0,0,1-.9.172,1.509,1.509,0,0,1-.779-.379C54.336,91.947,53.965,90.2,54,88.345A20.116,20.116,0,0,1,56.056,80.5a42.368,42.368,0,0,1,9.022-12.4,43.9,43.9,0,0,1,14.187-8.641C82.571,58.228,86.4,57.1,90,57.242a10.622,10.622,0,0,1,7.113,2.8,6.2,6.2,0,0,1,1.858,4.542A6.487,6.487,0,0,1,97.105,69.227Zm86.964,21.9a1.343,1.343,0,0,1-.613.537,1.408,1.408,0,0,1-.8.1,1.429,1.429,0,0,1-.727-.353,1.363,1.363,0,0,1-.408-.7c-1.629-7.157-4.794-12.482-11.547-15.916a48.751,48.751,0,0,0-10.758-3.618c-1.051-.249-2.161-.41-3.28-.573-3.5-.512-7.035-1.1-9.32-3.931a7.551,7.551,0,0,1-1.628-5.885,6.258,6.258,0,0,1,3.4-4.635c4.97-2.57,11.146-.048,16.165,2.1.372.159.737.316,1.095.467a37.594,37.594,0,0,1,13.064,8.717,28.315,28.315,0,0,1,6.714,12.407C186.331,83.761,186.118,87.768,184.07,91.126Z" transform="translate(-54 -55.059)" fill-rule="evenodd"/>
      </g>
      <ellipse id="Ellipse_1" data-name="Ellipse 1" cx="20" cy="9" rx="20" ry="9" transform="translate(588 440)" fill="#da5552"/>
      <ellipse id="Ellipse_2" data-name="Ellipse 2" cx="20" cy="9" rx="20" ry="9" transform="translate(718 440)" fill="#da5552"/>
      <path id="Path_1" data-name="Path 1" d="M515.845,474.746l7.236-5.206" transform="translate(275.34 -114.618) rotate(7)" fill="none" stroke="#000" stroke-linecap="round" stroke-width="3"/>
      <path id="Path_4" data-name="Path 4" d="M.192.267,5.064,5.183" transform="translate(620.229 422.696) rotate(173)" fill="none" stroke="#000" stroke-linecap="round" stroke-width="3"/>
      <path id="Path_2" data-name="Path 2" d="M515.845,473.843l5.981-4.3" transform="translate(274.23 -118.721) rotate(7)" fill="none" stroke="#000" stroke-linecap="round" stroke-width="3"/>
      <path id="Path_5" data-name="Path 5" d="M.159.22,4.186,4.284" transform="translate(620.886 417.654) rotate(173)" fill="none" stroke="#000" stroke-linecap="round" stroke-width="3"/>
      <path id="Path_3" data-name="Path 3" d="M515.845,473.843l5.981-4.3" transform="translate(270.23 -122.721) rotate(7)" fill="none" stroke="#000" stroke-linecap="round" stroke-width="3"/>
      <path id="Path_6" data-name="Path 6" d="M.159.22,4.186,4.284" transform="translate(623.667 413.655) rotate(173)" fill="none" stroke="#000" stroke-linecap="round" stroke-width="3"/>
    </g>
  </g>
</svg>
